<svg xmlns="http://www.w3.org/2000/svg" width="1200" height="630" viewBox="0 0 1200 630" role="img" aria-label="Abstract AI agent network illustration">
  <defs>
    <linearGradient id="bg3" x1="0" y1="0" x2="1" y2="1">
      <stop offset="0" stop-color="#0C0C0E"/>
      <stop offset="1" stop-color="#070708"/>
    </linearGradient>
  </defs>
  <rect width="1200" height="630" fill="url(#bg3)"/>
  <g stroke="#1C1C1F" stroke-width="1">
    <path d="M0 157.5H1200M0 315H1200M0 472.5H1200"/>
    <path d="M300 0V630M600 0V630M900 0V630"/>
  </g>
  <g stroke="#2A2A2E" stroke-width="2">
    <path d="M600 315 L340 170M600 315 L340 460M600 315 L860 170M600 315 L860 460M340 170 L340 460M860 170 L860 460"/>
  </g>
  <path d="M600 315 L860 170" stroke="#E8C57E" stroke-width="3"/>
  <path d="M600 315 L340 460" stroke="#E8C57E" stroke-width="3"/>
  <circle cx="340" cy="170" r="44" fill="#141416" stroke="#2A2A2E" stroke-width="2"/>
  <circle cx="860" cy="170" r="44" fill="#141416" stroke="#E8C57E" stroke-width="2"/>
  <circle cx="340" cy="460" r="44" fill="#141416" stroke="#E8C57E" stroke-width="2"/>
  <circle cx="860" cy="460" r="44" fill="#141416" stroke="#2A2A2E" stroke-width="2"/>
  <circle cx="600" cy="315" r="86" fill="#FAFAFA"/>
  <path d="M600 315 C 611 299 633 299 633 315 C 633 331 611 331 600 315 C 589 299 567 299 567 315 C 567 331 589 331 600 315 Z" stroke="#0A0A0A" stroke-width="7" fill="none" stroke-linecap="round"/>
  <circle cx="340" cy="170" r="10" fill="#FAFAFA"/>
  <circle cx="860" cy="170" r="10" fill="#E8C57E"/>
  <circle cx="340" cy="460" r="10" fill="#E8C57E"/>
  <circle cx="860" cy="460" r="10" fill="#FAFAFA"/>
</svg>
