<svg xmlns="http://www.w3.org/2000/svg" width="1200" height="630" viewBox="0 0 1200 630" role="img" aria-label="Abstract chart illustration">
  <defs>
    <linearGradient id="bg" x1="0" y1="0" x2="1" y2="1">
      <stop offset="0" stop-color="#0C0C0E"/>
      <stop offset="1" stop-color="#070708"/>
    </linearGradient>
    <linearGradient id="gold" x1="0" y1="1" x2="0" y2="0">
      <stop offset="0" stop-color="#8A6320"/>
      <stop offset="1" stop-color="#E8C57E"/>
    </linearGradient>
  </defs>
  <rect width="1200" height="630" fill="url(#bg)"/>
  <g stroke="#1C1C1F" stroke-width="1">
    <path d="M0 157.5H1200M0 315H1200M0 472.5H1200"/>
    <path d="M300 0V630M600 0V630M900 0V630"/>
  </g>
  <g>
    <rect x="180" y="380" width="90" height="130" rx="10" fill="#1A1A1D" stroke="#2A2A2E"/>
    <rect x="310" y="320" width="90" height="190" rx="10" fill="#1A1A1D" stroke="#2A2A2E"/>
    <rect x="440" y="250" width="90" height="260" rx="10" fill="#1A1A1D" stroke="#2A2A2E"/>
    <rect x="570" y="290" width="90" height="220" rx="10" fill="#1A1A1D" stroke="#2A2A2E"/>
    <rect x="700" y="180" width="90" height="330" rx="10" fill="url(#gold)"/>
    <rect x="830" y="120" width="90" height="390" rx="10" fill="#FAFAFA"/>
  </g>
  <path d="M225 340 L355 285 L485 210 L615 250 L745 140 L875 85" fill="none" stroke="#E8C57E" stroke-width="4" stroke-linecap="round" stroke-dasharray="1 14"/>
  <path d="M980 120 C 996 96 1028 96 1028 120 C 1028 144 996 144 980 120 C 964 96 932 96 932 120 C 932 144 964 144 980 120 Z" stroke="#FAFAFA" stroke-width="6" fill="none" stroke-linecap="round"/>
</svg>
